<svg xmlns="http://www.w3.org/2000/svg" xmlns:xlink="http://www.w3.org/1999/xlink" width="840" height="232" viewBox="0 0 840 232"><defs><style>.a{clip-path:url(#b);}.b{fill:#da5371;}.c{fill:#f55a3c;}.d{fill:#6467f3;}.e{fill:#f5d259;}.f{fill:#a0f761;}.g{fill:none;}.h{fill:#238bcc;}</style><clipPath id="b"><rect width="840" height="232"/></clipPath></defs><g id="a" class="a"><path class="b" d="M7.35,196H150.27V70L78.99,105.82,7.35,70Z" transform="translate(0 -20)"/><path class="c" d="M182.67,196h54V124h18V70h-90v54h18Zm104.4,0h54V124h18V70h-90v54h18Z" transform="translate(0 -20)"/><path class="d" d="M432.69,149.38A39.881,39.881,0,0,0,427.47,70h-54V196H474.99Z" transform="translate(0 -20)"/><path class="e" d="M554.01,115.72a29.592,29.592,0,0,0,4.5-15.84A30.076,30.076,0,0,0,528.45,70H489.39V196h54.36a40.841,40.841,0,0,0,10.26-80.28Z" transform="translate(0 -20)"/><path class="f" d="M655.89,197.26c35.1,0,63.72-28.8,63.72-64.62,0-35.1-28.62-64.08-63.72-64.08a64.35,64.35,0,1,0,0,128.7Z" transform="translate(0 -20)"/><path class="g" d="M832.65,70H710.61l41.76,63-41.76,63H832.65l-41.76-63Z" transform="translate(0 -20)"/><path class="h" d="M832.65,70H710.61l41.76,63-41.76,63H832.65l-41.76-63Z" transform="translate(0 -20)"/></g></svg>